<svg width="64" height="14" viewBox="0 0 64 14" fill="none" xmlns="http://www.w3.org/2000/svg">
<path d="M6.31303 13.9359V9.84925H6.2484C6.14896 10.0614 6.0081 10.2718 5.82581 10.4806C5.64683 10.6861 5.41317 10.8568 5.12482 10.9927C4.83978 11.1286 4.49177 11.1966 4.08078 11.1966C3.50076 11.1966 2.97543 11.0474 2.50479 10.7491C2.03746 10.4475 1.66625 10.005 1.39115 9.4217C1.11937 8.83505 0.983482 8.11583 0.983482 7.26403C0.983482 6.38903 1.12434 5.66152 1.40607 5.0815C1.68779 4.49817 2.06232 4.06232 2.52965 3.77397C3.00029 3.4823 3.51568 3.33647 4.07581 3.33647C4.50337 3.33647 4.85967 3.40939 5.1447 3.55522C5.43306 3.69774 5.66506 3.87672 5.84073 4.09215C6.0197 4.30427 6.15559 4.51308 6.2484 4.71857H6.33789V3.4359H8.42595V13.9359H6.31303ZM4.75195 9.51119C5.09333 9.51119 5.38168 9.41838 5.617 9.23278C5.85564 9.04386 6.03793 8.78036 6.16388 8.44229C6.29314 8.10423 6.35777 7.70816 6.35777 7.25408C6.35777 6.80001 6.2948 6.4056 6.16885 6.07084C6.0429 5.73609 5.86061 5.47757 5.62198 5.29528C5.38334 5.11299 5.09333 5.02184 4.75195 5.02184C4.40394 5.02184 4.11061 5.1163 3.87198 5.30522C3.63334 5.49414 3.45271 5.75598 3.33007 6.09073C3.20744 6.42549 3.14612 6.81327 3.14612 7.25408C3.14612 7.69821 3.20744 8.09097 3.33007 8.43235C3.45602 8.77042 3.63665 9.03557 3.87198 9.22781C4.11061 9.41673 4.40394 9.51119 4.75195 9.51119ZM41.127 13.9359V9.84925H41.0623C40.9629 10.0614 40.822 10.2718 40.6398 10.4806C40.4608 10.6861 40.2271 10.8568 39.9388 10.9927C39.6537 11.1286 39.3057 11.1966 38.8947 11.1966C38.3147 11.1966 37.7894 11.0474 37.3187 10.7491C36.8514 10.4475 36.4802 10.005 36.2051 9.4217C35.9333 8.83505 35.7974 8.11583 35.7974 7.26403C35.7974 6.38903 35.9383 5.66152 36.22 5.0815C36.5017 4.49817 36.8763 4.06232 37.3436 3.77397C37.8142 3.4823 38.3296 3.33647 38.8898 3.33647C39.3173 3.33647 39.6736 3.40939 39.9586 3.55522C40.247 3.69774 40.479 3.87672 40.6547 4.09215C40.8336 4.30427 40.9695 4.51308 41.0623 4.71857H41.1518V3.4359H43.2399V13.9359H41.127ZM39.5659 9.51119C39.9073 9.51119 40.1956 9.41838 40.4309 9.23278C40.6696 9.04386 40.8519 8.78036 40.9778 8.44229C41.1071 8.10423 41.1717 7.70816 41.1717 7.25408C41.1717 6.80001 41.1087 6.4056 40.9828 6.07084C40.8568 5.73609 40.6746 5.47757 40.4359 5.29528C40.1973 5.11299 39.9073 5.02184 39.5659 5.02184C39.2179 5.02184 38.9246 5.1163 38.6859 5.30522C38.4473 5.49414 38.2666 5.75598 38.144 6.09073C38.0214 6.42549 37.9601 6.81327 37.9601 7.25408C37.9601 7.69821 38.0214 8.09097 38.144 8.43235C38.27 8.77042 38.4506 9.03557 38.6859 9.22781C38.9246 9.41673 39.2179 9.51119 39.5659 9.51119Z" fill="#D53B4A"/>
<path d="M12.3598 11.2164C11.8726 11.2164 11.4384 11.1319 11.0573 10.9629C10.6761 10.7905 10.3745 10.537 10.1524 10.2022C9.93368 9.86417 9.82431 9.44324 9.82431 8.93945C9.82431 8.51521 9.9022 8.15891 10.058 7.87056C10.2137 7.58221 10.4259 7.3502 10.6943 7.17454C10.9628 6.99888 11.2677 6.8663 11.6091 6.77681C11.9538 6.68732 12.3151 6.62435 12.6929 6.58789C13.137 6.54149 13.495 6.4984 13.7668 6.45863C14.0386 6.41554 14.2358 6.35257 14.3584 6.26971C14.481 6.18685 14.5423 6.06422 14.5423 5.90181V5.87198C14.5423 5.55711 14.4429 5.31351 14.2441 5.14116C14.0485 4.96881 13.7701 4.88263 13.4088 4.88263C13.0277 4.88263 12.7244 4.96715 12.499 5.13619C12.2736 5.30191 12.1245 5.51071 12.0516 5.76261L10.0928 5.60352C10.1922 5.1395 10.3878 4.73846 10.6794 4.40039C10.9711 4.05901 11.3473 3.79717 11.808 3.61488C12.272 3.42927 12.8089 3.33647 13.4188 3.33647C13.843 3.33647 14.249 3.38619 14.6368 3.48562C15.0279 3.58505 15.3743 3.73917 15.6759 3.94798C15.9808 4.15678 16.2211 4.42525 16.3968 4.75337C16.5724 5.07818 16.6602 5.46763 16.6602 5.9217V11.0723H14.6517V10.0133H14.5921C14.4694 10.252 14.3054 10.4624 14.0999 10.6447C13.8944 10.8237 13.6475 10.9645 13.3591 11.0673C13.0708 11.1667 12.7377 11.2164 12.3598 11.2164ZM12.9664 9.75479C13.2779 9.75479 13.553 9.69348 13.7916 9.57085C14.0303 9.4449 14.2175 9.27586 14.3534 9.06374C14.4893 8.85162 14.5573 8.61133 14.5573 8.34286V7.53249C14.491 7.57558 14.3998 7.61535 14.2838 7.65181C14.1711 7.68495 14.0435 7.71644 13.901 7.74627C13.7585 7.77279 13.616 7.79764 13.4735 7.82085C13.3309 7.84073 13.2017 7.85896 13.0857 7.87553C12.8371 7.91199 12.62 7.96999 12.4344 8.04954C12.2488 8.12908 12.1046 8.2368 12.0019 8.37269C11.8991 8.50527 11.8477 8.67099 11.8477 8.86985C11.8477 9.1582 11.9521 9.37861 12.161 9.53107C12.3731 9.68022 12.6415 9.75479 12.9664 9.75479ZM20.4773 6.65749V11.0723H18.3594V3.4359H20.3778V4.7832H20.4673C20.6364 4.33907 20.9197 3.98775 21.3175 3.72923C21.7152 3.46739 22.1974 3.33647 22.7642 3.33647C23.2945 3.33647 23.7569 3.45247 24.1513 3.68448C24.5457 3.91649 24.8523 4.24793 25.071 4.6788C25.2898 5.10636 25.3992 5.61677 25.3992 6.21005V11.0723H23.2813V6.58789C23.2846 6.12056 23.1653 5.75598 22.9233 5.49414C22.6814 5.22899 22.3483 5.09641 21.924 5.09641C21.639 5.09641 21.3871 5.15773 21.1683 5.28036C20.9529 5.40299 20.7839 5.58197 20.6612 5.81729C20.5419 6.0493 20.4806 6.32937 20.4773 6.65749ZM29.9383 11.1966C29.3583 11.1966 28.833 11.0474 28.3623 10.7491C27.895 10.4475 27.5238 10.005 27.2487 9.4217C26.9769 8.83505 26.841 8.11583 26.841 7.26403C26.841 6.38903 26.9819 5.66152 27.2636 5.0815C27.5453 4.49817 27.9198 4.06232 28.3872 3.77397C28.8578 3.4823 29.3732 3.33647 29.9333 3.33647C30.3609 3.33647 30.7172 3.40939 31.0022 3.55522C31.2906 3.69774 31.5226 3.87672 31.6983 4.09215C31.8772 4.30427 32.0131 4.51308 32.1059 4.71857H32.1706V0.890447H34.2835V11.0723H32.1954V9.84925H32.1059C32.0065 10.0614 31.8656 10.2718 31.6833 10.4806C31.5044 10.6861 31.2707 10.8568 30.9823 10.9927C30.6973 11.1286 30.3493 11.1966 29.9383 11.1966ZM30.6095 9.51119C30.9509 9.51119 31.2392 9.41838 31.4745 9.23278C31.7132 9.04386 31.8955 8.78036 32.0214 8.44229C32.1507 8.10423 32.2153 7.70816 32.2153 7.25408C32.2153 6.80001 32.1523 6.4056 32.0264 6.07084C31.9004 5.73609 31.7181 5.47757 31.4795 5.29528C31.2409 5.11299 30.9509 5.02184 30.6095 5.02184C30.2615 5.02184 29.9681 5.1163 29.7295 5.30522C29.4909 5.49414 29.3102 5.75598 29.1876 6.09073C29.065 6.42549 29.0036 6.81327 29.0036 7.25408C29.0036 7.69821 29.065 8.09097 29.1876 8.43235C29.3135 8.77042 29.4942 9.03557 29.7295 9.22781C29.9681 9.41673 30.2615 9.51119 30.6095 9.51119Z" fill="#F3921E"/>
<path d="M45.036 11.0723V0.890447H47.1887V5.09144H51.5587V0.890447H53.7064V11.0723H51.5587V6.8663H47.1887V11.0723H45.036ZM55.5373 11.0723V0.890447H59.5544C60.3233 0.890447 60.9795 1.02799 61.5231 1.30309C62.07 1.57487 62.4859 1.961 62.771 2.46147C63.0593 2.95863 63.2035 3.54362 63.2035 4.21644C63.2035 4.89258 63.0577 5.47425 62.766 5.96147C62.4743 6.44537 62.0518 6.81658 61.4982 7.07511C60.9481 7.33363 60.2819 7.46289 59.4997 7.46289H56.81V5.73278H59.1517C59.5626 5.73278 59.904 5.67643 60.1758 5.56374C60.4476 5.45105 60.6498 5.28202 60.7823 5.05664C60.9182 4.83126 60.9862 4.5512 60.9862 4.21644C60.9862 3.87837 60.9182 3.59334 60.7823 3.36133C60.6498 3.12932 60.4459 2.95366 60.1708 2.83434C59.8991 2.71171 59.556 2.65039 59.1417 2.65039H57.69V11.0723H55.5373ZM61.0359 6.43874L63.5664 11.0723H61.19L58.7142 6.43874H61.0359Z" fill="#505CA6"/>
</svg>
